<?xml version="1.0" encoding="UTF-8" standalone="no"?>
<!-- Created with Inkscape (http://www.inkscape.org/) -->

<svg
   width="210mm"
   height="297mm"
   viewBox="0 0 210 297"
   version="1.1"
   id="svg1"
   xml:space="preserve"
   xmlns="http://www.w3.org/2000/svg"
   xmlns:svg="http://www.w3.org/2000/svg"><defs
     id="defs1" /><g
     id="layer1"><path
       style="fill:#000000"
       d="m 112.41631,164.38503 c 0,-0.51845 -16.569702,-5.95929 -17.567632,-5.76852 -0.502085,0.096 -0.688622,0.0206 -0.688622,-0.27825 0,-0.22544 -0.238125,-0.48547 -0.529166,-0.57784 -0.291042,-0.0924 -0.542219,-0.30876 -0.558172,-0.48085 -0.01595,-0.1721 -0.06349,-0.67009 -0.105638,-1.10665 -0.797135,-8.25667 -1.181364,-12.68725 -1.152072,-13.28463 0.01991,-0.40606 0.120894,0.006 0.224408,0.91628 0.103514,0.91001 0.370895,1.86251 0.594179,2.11666 0.482672,0.54941 0.566495,3.50241 0.0996,3.50886 -0.169704,0.002 -0.145237,0.0977 0.05816,0.22664 0.227869,0.14447 0.438395,1.22801 0.599839,3.08728 0.13681,1.57558 0.278254,2.8942 0.314318,2.93027 0.03606,0.0361 0.3452,-0.14535 0.686968,-0.40315 l 0.621395,-0.46872 -0.294619,-3.51982 c -0.346738,-4.14248 -0.364307,-5.05129 -0.09618,-4.97534 0.58708,0.1663 1.390788,-0.65963 1.415436,-1.45458 0.02511,-0.80969 0.03656,-0.81879 0.23821,-0.18913 l 0.211836,0.66146 0.02637,-0.7276 c 0.0145,-0.40019 -0.09972,-0.72761 -0.253825,-0.72761 -0.160291,0 -0.189913,-0.14153 -0.06922,-0.33073 0.344375,-0.53984 0.07682,-2.93688 -0.385185,-3.45097 -0.395493,-0.44007 -0.391081,-0.46087 0.06096,-0.2874 0.493924,0.18953 0.507168,0.0182 0.114497,-1.48087 -0.06269,-0.23933 0.118189,-0.42445 0.467067,-0.47802 0.554481,-0.0851 0.57441,0.0169 0.761747,3.90181 0.105803,2.19408 0.309692,4.06175 0.453087,4.15037 0.143394,0.0886 -0.288689,0.50309 -0.960185,0.92104 -1.16207,0.72329 -1.567195,1.2881 -0.923922,1.2881 0.218445,0 0.219052,0.0939 0.0023,0.35508 -0.162077,0.19529 -0.221429,0.42833 -0.131895,0.51786 0.08954,0.0895 0.195103,1.01267 0.234596,2.0514 0.03949,1.03874 0.192955,2.00976 0.341027,2.15784 0.345934,0.34593 0.910082,0.008 0.674101,-0.4041 -0.09846,-0.17185 -0.08475,-0.22734 0.03047,-0.12332 0.285568,0.2578 1.251536,-0.28574 1.059633,-0.59625 -0.08439,-0.13655 0.03489,-0.17601 0.265083,-0.0877 0.453674,0.17409 0.453435,0.26572 0.02502,-9.60289 -0.0958,-2.20675 -0.07978,-4.06538 0.03561,-4.1303 0.115384,-0.0649 0.659709,-0.0617 1.20961,0.007 0.700076,0.0877 0.928236,0.21545 0.761036,0.42614 -0.348165,0.43872 -0.0462,4.71229 0.32427,4.58893 0.18544,-0.0618 0.30863,-0.98046 0.32959,-2.45791 0.0184,-1.29761 0.0779,-2.34051 0.13229,-2.31755 0.69278,0.29265 2.23079,0.36217 2.69585,0.12185 l 0.57797,-0.29868 -0.59531,0.15152 c -0.38391,0.0977 -0.59531,0.0324 -0.59531,-0.18382 0,-0.26081 -0.0706,-0.26477 -0.3175,-0.0178 -0.41294,0.41295 -0.75857,0.40617 -0.67469,-0.0132 0.0381,-0.19029 -0.27091,-0.37212 -0.7276,-0.42818 -0.70318,-0.0863 -0.73337,-0.12349 -0.26459,-0.3256 0.35201,-0.15176 0.0863,-0.1877 -0.79375,-0.10736 -0.884635,0.0808 -1.103772,0.0508 -0.661452,-0.0905 0.585432,-0.18696 0.516602,-0.23376 -0.598774,-0.40723 -0.693128,-0.1078 -1.526565,-0.12278 -1.852083,-0.0333 -0.575589,0.15825 -0.577739,0.15144 -0.07826,-0.24785 0.592236,-0.47345 0.239505,-0.53291 -0.805144,-0.13574 -0.450573,0.17131 -0.781303,0.1803 -0.87798,0.0239 -0.08531,-0.13803 -0.511904,-0.29148 -0.947994,-0.34099 -0.510545,-0.058 -0.764714,-0.22165 -0.713766,-0.45968 0.06461,-0.30185 -0.03456,-0.29517 -0.540644,0.0364 -0.532233,0.34873 -0.690685,0.35423 -1.121881,0.0389 -0.276162,-0.20194 -0.384107,-0.36716 -0.239877,-0.36716 0.14423,0 0.405112,0.14288 0.579737,0.31751 0.246944,0.24694 0.3175,0.22227 0.3175,-0.11103 0,-0.48879 2.290651,-1.35544 3.492278,-1.32127 0.500024,0.0142 0.741055,-0.11147 0.741055,-0.38642 0,-0.2535 0.149969,-0.34993 0.396875,-0.25519 0.218281,0.0838 0.398698,0.007 0.400927,-0.17013 0.0027,-0.21147 0.07095,-0.22749 0.198437,-0.0466 0.106912,0.15172 0.789698,0.2918 1.517303,0.3113 0.727603,0.0195 4.656663,0.51177 8.731243,1.09394 4.07459,0.58217 8.09295,1.14041 8.92969,1.24054 0.83675,0.10012 1.52136,0.27238 1.52136,0.38279 0,0.1104 -0.95542,0.82799 -2.12315,1.59462 -1.16774,0.76664 -2.07464,1.44241 -2.01534,1.50171 0.0593,0.0593 1.10058,-0.55294 2.31395,-1.36053 1.21338,-0.80759 2.2702,-1.46835 2.3485,-1.46835 0.14689,0 -0.51487,11.501 -1.04869,18.22555 -0.29613,3.73035 -0.54543,4.56878 -1.28516,4.3222 -0.22167,-0.0739 -0.32128,0.0638 -0.27173,0.37561 0.0949,0.59707 -0.78999,2.00269 -1.12888,1.79325 -0.13321,-0.0823 -0.20948,0.008 -0.1695,0.2007 0.04,0.19272 -0.085,0.31768 -0.27769,0.2777 -0.19272,-0.04 -0.28398,0.0348 -0.2028,0.16611 0.0812,0.13134 -0.27262,0.78914 -0.78621,1.46176 -0.92116,1.20641 -1.7033,1.59034 -1.7033,0.83611 z m 3.07118,-8.33061 c 0.10837,-0.50068 0.19282,-0.56246 0.37219,-0.27224 0.33698,0.54523 0.4677,0.29122 0.68217,-1.32549 l 0.19129,-1.44206 -0.67288,0.4409 c -0.76445,0.50088 -0.99812,0.38343 -0.99812,-0.50171 0,-0.33955 -0.11906,-0.61736 -0.26458,-0.61736 -0.38922,0 -0.32208,1.12069 0.13229,2.20815 0.47543,1.13787 0.50638,1.59493 0.0906,1.33796 -0.21473,-0.1327 -0.25535,0.001 -0.1359,0.44741 0.0937,0.35018 0.18579,0.81528 0.20466,1.03356 0.0189,0.21828 0.0847,0.15875 0.1462,-0.13229 0.0615,-0.29104 0.17498,-0.82061 0.25207,-1.17683 z m 1.05951,-4.29732 c -0.28312,-1.4156 -1.42772,-2.58428 -1.82954,-1.86804 -0.60271,1.07434 -0.28475,2.5504 0.42288,1.96312 0.31742,-0.26344 0.4116,-0.17555 0.54922,0.51253 0.14449,0.72246 0.2207,0.78516 0.5859,0.48208 0.28193,-0.23399 0.37111,-0.59184 0.27154,-1.08969 z m -2.54319,-1.40502 c 0,-0.3638 -0.10256,-0.66146 -0.2279,-0.66146 -0.12534,0 -0.17099,0.29766 -0.10144,0.66146 0.0695,0.36381 0.17209,0.66146 0.22789,0.66146 0.0558,0 0.10145,-0.29765 0.10145,-0.66146 z m 2.91041,-2.03049 v -1.63362 l -0.65455,0.61492 c -0.49907,0.46885 -0.68203,0.52694 -0.77023,0.24456 -0.32962,-1.05541 -0.34018,-1.579 -0.0401,-1.98938 0.2922,-0.3996 0.35309,-0.33642 0.51681,0.5363 0.15434,0.82273 0.24977,0.936 0.56683,0.67286 0.50274,-0.41723 0.49209,-2.21148 -0.0156,-2.63286 -0.21828,-0.18115 -0.38307,-0.64222 -0.36619,-1.02458 0.0198,-0.44821 0.0737,-0.53071 0.1517,-0.23219 0.0666,0.25467 0.28028,0.46302 0.47497,0.46302 0.38737,0 0.69909,-3.12468 0.33411,-3.34919 -0.10953,-0.0674 -0.0756,-0.3534 0.0755,-0.63561 0.29744,-0.55578 0.25278,-0.5968 -0.38383,-0.35251 -0.47936,0.18394 -0.57441,1.16231 -0.11292,1.16231 0.18283,0 0.12969,0.19436 -0.1323,0.48386 -0.24083,0.26612 -0.45063,0.77213 -0.46621,1.12448 -0.0184,0.4157 -0.11507,0.2543 -0.27538,-0.45969 -0.13587,-0.60517 -0.40325,-1.16026 -0.59419,-1.23353 -0.42508,-0.16312 -0.36689,0.56966 0.16668,2.09894 0.34626,0.99239 0.33918,1.11325 -0.0805,1.37533 -0.50071,0.3127 -0.97454,2.394 -0.60617,2.66263 0.12498,0.0911 0.24159,0.62099 0.25914,1.17746 0.035,1.11098 0.57953,2.35767 0.93401,2.13859 0.12358,-0.0764 0.2247,-0.0128 0.2247,0.14132 0,0.15411 0.1786,0.2802 0.39688,0.2802 0.30992,0 0.39687,-0.3579 0.39687,-1.63362 z M 92.621063,146.4583 c -0.189855,-0.18986 -0.31309,-0.20548 -0.31309,-0.0397 0,0.35316 0.312899,0.66606 0.489479,0.48948 0.07519,-0.0752 -0.0042,-0.27759 -0.176389,-0.44979 z m 15.561907,-3.11263 c 0,-3.6437 0.45067,-3.15969 -3.57187,-3.83621 -3.05729,-0.51418 -2.91589,-0.53342 -2.87735,0.39158 0.0182,0.43656 0.048,1.56082 0.0661,2.49835 0.0312,1.60622 0.0667,1.69813 0.61506,1.59252 0.32009,-0.0616 0.67397,-0.27645 0.7864,-0.47736 0.16211,-0.28966 0.46611,-0.3119 1.46854,-0.10744 1.13585,0.23167 1.35681,0.40246 2.17765,1.68318 0.50244,0.78393 1.00846,1.42533 1.12448,1.42533 0.11602,0 0.21094,-1.42648 0.21094,-3.16995 z m 6.00322,0.59027 c -0.0665,-0.25466 -0.121,-0.0463 -0.121,0.46302 0,0.50932 0.0545,0.71768 0.121,0.46302 0.0666,-0.25466 0.0666,-0.67138 0,-0.92604 z m -5.34176,-1.50813 c 0,-0.37477 -0.0985,-0.54969 -0.23357,-0.41466 -0.12846,0.12847 -0.16196,0.42017 -0.0744,0.64823 0.22327,0.58183 0.30802,0.51756 0.30802,-0.23357 z m 2.12755,-2.54437 c 0.31026,-0.50201 -0.14225,-0.62588 -0.60304,-0.16509 -0.41247,0.41247 -0.4132,0.44727 -0.009,0.44727 0.24088,0 0.51644,-0.12698 0.61236,-0.28218 z m -1.46609,-0.37927 c -0.18116,-0.21828 -0.48065,-0.39688 -0.66555,-0.39688 -0.18489,0 -0.4047,0.1786 -0.48846,0.39688 -0.11514,0.30002 0.0473,0.39687 0.66554,0.39687 0.69698,0 0.76917,-0.0587 0.48847,-0.39687 z m -1.5875,-0.11668 c 0,-0.43407 -0.41631,-0.53027 -1.48003,-0.34201 l -1.03351,0.18291 1.05833,0.16649 c 0.58208,0.0916 1.14763,0.18338 1.25677,0.20403 0.10914,0.0207 0.19844,-0.0745 0.19844,-0.21142 z m 5.74917,0.0891 c -0.0879,-0.0879 -0.31612,-0.0973 -0.50711,-0.0209 -0.21107,0.0845 -0.14838,0.14715 0.15985,0.15985 0.27891,0.0115 0.43518,-0.0511 0.34726,-0.13896 z m -8.395,-0.64365 c 0.29779,-0.19976 0.20711,-0.23468 -0.3632,-0.13988 -0.41803,0.0695 -0.82483,0.19113 -0.90399,0.27029 -0.25816,0.25815 0.85939,0.14315 1.26719,-0.13041 z m 3.89709,-0.1501 c -0.0879,-0.0879 -0.31612,-0.0973 -0.50712,-0.0209 -0.21107,0.0845 -0.14837,0.14715 0.15985,0.15985 0.27892,0.0115 0.43519,-0.0511 0.34727,-0.13896 z m -1.32292,-0.26459 c -0.0879,-0.0879 -0.31612,-0.0973 -0.50712,-0.0209 -0.21106,0.0845 -0.14837,0.14716 0.15986,0.15986 0.27891,0.0115 0.43518,-0.0511 0.34726,-0.13897 z m -1.71428,-0.27996 c -0.1819,-0.0734 -0.47956,-0.0734 -0.66146,0 -0.1819,0.0734 -0.0331,0.13346 0.33073,0.13346 0.3638,0 0.51263,-0.0601 0.33073,-0.13346 z m -1.5875,-0.26458 c -0.1819,-0.0734 -0.47956,-0.0734 -0.66146,0 -0.1819,0.0734 -0.0331,0.13345 0.33073,0.13345 0.3638,0 0.51263,-0.0601 0.33073,-0.13345 z m -1.32291,-0.26458 c -0.18191,-0.0734 -0.47956,-0.0734 -0.66146,0 -0.1819,0.0734 -0.0331,0.13345 0.33073,0.13345 0.3638,0 0.51263,-0.0601 0.33073,-0.13345 z m -7.205769,-2.95099 c 0.182393,-0.21945 0.171492,-0.24027 -0.03637,-0.0695 -0.163253,0.13415 -0.448866,0.18556 -0.634696,0.11425 -0.185829,-0.0713 -0.403923,-0.0228 -0.484654,0.10785 -0.218341,0.35328 0.852813,0.21181 1.155722,-0.15264 z m -4.440664,6.5658 c 0,-0.50932 0.05445,-0.71768 0.121,-0.46302 0.06655,0.25466 0.06655,0.67138 0,0.92604 -0.06655,0.25466 -0.121,0.0463 -0.121,-0.46302 z M 91.184883,138.975 c -0.06955,-0.3638 -0.02389,-0.66146 0.101447,-0.66146 0.125341,0 0.227893,0.29766 0.227893,0.66146 0,0.3638 -0.04565,0.66146 -0.101447,0.66146 -0.0558,0 -0.158348,-0.29766 -0.227893,-0.66146 z m 6.877778,-1.89502 c 0.181901,-0.0734 0.479557,-0.0734 0.661458,0 0.181901,0.0734 0.03307,0.13345 -0.330729,0.13345 -0.363802,0 -0.512631,-0.06 -0.330729,-0.13345 z"
       id="path2" /><path
       style="fill:none"
       d="m 112.41631,164.42708 c 0,-0.19593 -0.82823,-0.60638 -1.91823,-0.95064 -1.05503,-0.33322 -4.83826,-1.54728 -8.40719,-2.69791 -3.568933,-1.15064 -6.813386,-2.09207 -7.2099,-2.09207 -0.43948,0 -0.720934,-0.14374 -0.720934,-0.36819 0,-0.20251 -0.297656,-0.4429 -0.661458,-0.53421 -0.588097,-0.1476 -0.661932,-0.30484 -0.665732,-1.41775 -0.0073,-2.14269 -1.530298,-17.31196 -1.761223,-17.54222 -0.120383,-0.12003 -0.179079,-0.86232 -0.130436,-1.64952 l 0.08844,-1.43128 4.784898,-1.6793 c 2.631693,-0.92361 5.092205,-1.65527 5.467805,-1.62589 0.3756,0.0294 3.9476,0.4797 7.93778,1.00073 l 7.25487,0.94732 1.55894,1.05866 1.55894,1.05866 -0.14956,1.36806 c -0.0823,0.75243 -0.39084,5.41618 -0.68573,10.36389 -0.29489,4.9477 -0.59628,9.37598 -0.66975,9.84062 -0.0795,0.50279 -0.80404,1.68101 -1.78972,2.91041 -0.91087,1.1361 -1.92689,2.45259 -2.25782,2.92553 -0.59643,0.85237 -1.62399,1.1783 -1.62399,0.5151 z m 3.96875,-9.83336 c 0,-0.94225 -0.0806,-1.1514 -0.39688,-1.03003 -0.42135,0.16169 -0.4903,0.64616 -0.23011,1.61704 0.268,1.00003 0.62699,0.66393 0.62699,-0.58701 z m -21.431254,0.0581 c 0,-0.11175 -0.238125,-0.0545 -0.529166,0.12729 -0.291042,0.18176 -0.529167,0.4219 -0.529167,0.53365 0,0.11175 0.238125,0.0545 0.529167,-0.12729 0.291041,-0.18176 0.529166,-0.4219 0.529166,-0.53365 z m 20.103244,-1.14016 c -0.43639,-1.32227 -0.63518,-0.94598 -0.22447,0.42488 0.18496,0.61733 0.38138,0.98715 0.4365,0.82181 0.0551,-0.16534 -0.0403,-0.72635 -0.21203,-1.24669 z m -20.793009,-0.006 c 0.280119,-0.72998 0.184466,-0.989 -0.236276,-0.63982 -0.433115,0.35946 -0.539168,1.05834 -0.160599,1.05834 0.129951,0 0.308545,-0.18833 0.396875,-0.41852 z m 2.144974,-0.37523 c -0.139784,-0.22618 0.150211,-0.36164 0.672679,-0.31423 0.07893,0.007 0.16189,-0.23095 0.184352,-0.52914 0.03942,-0.52335 0.02785,-0.52501 -0.333535,-0.0478 -0.205907,0.27188 -0.379985,0.37526 -0.386841,0.22974 -0.0069,-0.14552 -0.12185,-0.0917 -0.25554,0.11966 -0.22818,0.3607 -0.145212,0.80638 0.150115,0.80638 0.07276,0 0.05871,-0.11906 -0.03123,-0.26458 z m 20.067915,-1.56414 c -0.0887,-0.37665 -0.40318,-0.95122 -0.69878,-1.27683 -0.6901,-0.76014 -1.24518,-0.36754 -1.24518,0.88069 0,0.67826 0.0928,0.84972 0.39688,0.73304 0.21828,-0.0838 0.40962,-0.34791 0.42521,-0.58701 0.0156,-0.23909 0.14684,0.0975 0.29167,0.74803 0.24261,1.08964 0.292,1.14355 0.62743,0.68483 0.21554,-0.29477 0.29827,-0.77733 0.20277,-1.18275 z m -1.3939,-1.23604 c 0.0127,-0.30822 0.0754,-0.37091 0.15985,-0.15985 0.0764,0.191 0.067,0.4192 -0.0209,0.50712 -0.0879,0.0879 -0.15045,-0.0684 -0.13896,-0.34727 z m -20.751885,1.13339 c 0.196943,-0.11638 0.358078,-0.40272 0.358078,-0.63632 0,-0.37188 -0.06586,-0.36514 -0.529167,0.0541 -0.291041,0.26339 -0.519767,0.72833 -0.508278,1.03319 0.01463,0.38822 0.0659,0.43539 0.171088,0.15743 0.08261,-0.21828 0.311336,-0.49208 0.508279,-0.60845 z m 3.797661,0.0481 c 0,-0.14552 -0.119062,-0.191 -0.264583,-0.10106 -0.145521,0.0899 -0.264583,0.28258 -0.264583,0.4281 0,0.14552 0.119062,0.191 0.264583,0.10106 0.145521,-0.0899 0.264583,-0.28258 0.264583,-0.4281 z m -1.058333,-0.24897 c 0,-0.13693 -0.09922,-0.24897 -0.220486,-0.24897 -0.121267,0 -0.220486,0.17336 -0.220486,0.38524 0,0.21188 0.09922,0.32391 0.220486,0.24897 0.121267,-0.075 0.220486,-0.24831 0.220486,-0.38524 z m 0.650159,-0.23069 c 0.08372,-0.13546 0.03122,-0.32108 -0.116676,-0.41249 -0.147895,-0.0914 -0.2689,0.0194 -0.2689,0.24631 0,0.46474 0.158765,0.53317 0.385576,0.16618 z m -0.813789,-0.69348 c 0.09036,-0.23546 0.046,-0.34166 -0.103984,-0.24897 -0.143854,0.0889 -0.261553,0.27369 -0.261553,0.41062 0,0.38059 0.189645,0.29672 0.365537,-0.16165 z m -2.482203,-0.8448 c 0,-0.32278 -0.0741,-0.33538 -0.396875,-0.0675 -0.218281,0.18116 -0.396875,0.50797 -0.396875,0.72625 0,0.32278 0.0741,0.33538 0.396875,0.0675 0.218281,-0.18116 0.396875,-0.50797 0.396875,-0.72625 z m 3.751993,0.34075 c 0.297973,0.046 0.394948,-0.0609 0.293909,-0.32424 -0.108107,-0.28172 -0.204917,-0.30539 -0.341991,-0.0836 -0.10516,0.17015 -0.293973,0.29026 -0.419586,0.26692 -0.125613,-0.0233 -0.270194,0.11532 -0.321291,0.30813 -0.06315,0.23829 -0.0229,0.25665 0.125677,0.0573 0.120219,-0.16129 0.418696,-0.26233 0.663282,-0.22454 z m -1.753652,-0.12107 c -0.08225,-0.13309 1.5e-5,-0.30228 0.182823,-0.37598 0.20709,-0.0835 0.219923,-0.14188 0.03404,-0.15489 -0.164083,-0.0115 -0.446552,0.1577 -0.627709,0.37598 -0.27057,0.32602 -0.249946,0.39688 0.115509,0.39688 0.244688,0 0.377587,-0.1089 0.295332,-0.24199 z m 20.319449,-1.41065 c 0.15446,-1.20178 0.13887,-1.2417 -0.36257,-0.92855 -0.57315,0.35794 -0.60557,0.51954 -0.3553,1.7709 0.21801,1.09003 0.51419,0.74249 0.71787,-0.84235 z m -19.146842,0.69285 c 0.0054,0.31052 0.797802,-0.36058 0.797802,-0.67572 0,-0.13629 -0.148828,-0.15148 -0.330729,-0.0337 -0.181902,0.11773 -0.736206,0.21405 -1.231787,0.21405 -0.575097,0 -0.941311,0.14357 -1.012331,0.39687 -0.0663,0.23649 -0.02294,0.28995 0.107308,0.1323 0.400029,-0.48422 1.144376,-0.44888 1.148674,0.0545 0.0034,0.40322 0.04264,0.41492 0.260531,0.0778 0.141065,-0.21828 0.258304,-0.293 0.260532,-0.16604 z m 17.856202,-0.91966 c -0.43626,-1.65379 -0.79535,-2.08382 -0.53356,-0.63896 0.18091,0.99843 0.57476,1.98924 0.79073,1.98924 0.0545,0 -0.0613,-0.60763 -0.25717,-1.35028 z m -21.035253,-0.5018 c 0,-0.35278 -0.0285,-0.35278 -0.256481,0 -0.141064,0.21828 -0.25648,0.57547 -0.25648,0.79375 0,0.35278 0.0285,0.35278 0.25648,0 0.141065,-0.21828 0.256481,-0.57547 0.256481,-0.79375 z m 3.66653,-0.21514 c -0.04034,-0.24547 0.02001,-0.59515 0.134104,-0.77705 0.11728,-0.18698 0.08566,-0.33073 -0.07275,-0.33073 -0.154109,0 -0.280198,0.12609 -0.280198,0.2802 0,0.15411 -0.106587,0.21432 -0.236859,0.13381 -0.130272,-0.0805 -0.308025,0.0391 -0.395006,0.26574 -0.08698,0.22667 -0.278051,0.33802 -0.4246,0.24745 -0.146548,-0.0906 -0.266452,-0.0386 -0.266452,0.11552 0,0.15411 -0.133945,0.25043 -0.297656,0.21405 -0.163711,-0.0364 -0.357751,0.0993 -0.4312,0.30141 -0.08133,0.22386 -0.0175,0.29584 0.163269,0.18412 0.163247,-0.10089 0.503041,-0.068 0.755097,0.073 0.598846,0.33513 1.450377,-0.11042 1.352251,-0.70755 z m -1.12931,0.0913 c 0.660953,-0.49992 0.910466,-0.50222 0.910466,-0.008 0,0.25446 -0.255503,0.39687 -0.712028,0.39687 -0.682877,0 -0.691001,-0.0159 -0.198438,-0.38846 z m -3.322867,-0.1734 c 0,-0.14633 0.357187,-0.5666 0.79375,-0.93395 0.436562,-0.36734 0.786748,-0.86567 0.77819,-1.1074 -0.01339,-0.37828 -0.05946,-0.36974 -0.330729,0.0613 -0.173343,0.27544 -0.642591,0.84509 -1.042774,1.26589 -0.703966,0.74023 -1.002223,1.47697 -0.463021,1.14372 0.145521,-0.0899 0.264584,-0.28324 0.264584,-0.42957 z m 23.1439,-1.00314 c 0.23617,-0.74411 -0.13259,-1.92659 -0.76394,-2.44964 -0.51035,-0.42281 -0.5767,-0.42452 -0.88256,-0.0228 -0.41106,0.5399 -0.45191,2.29146 -0.0476,2.04159 0.15572,-0.0962 0.37503,-0.42342 0.48736,-0.72707 0.16811,-0.45446 0.23557,-0.35609 0.38146,0.55624 0.1877,1.17386 0.558,1.44382 0.82529,0.60166 z m -22.351464,-1.56275 c 0.0011,-0.28705 -0.06224,-0.28607 -0.353774,0.005 -0.41901,0.41901 -0.971847,1.40885 -0.958314,1.71584 0.0157,0.35609 1.310665,-1.34275 1.312088,-1.7213 z m 3.873058,-1.05506 c -0.09217,-1.09034 -0.167578,-2.78403 -0.167578,-3.76375 0,-1.58554 -0.0609,-1.79723 -0.554127,-1.92621 -0.545998,-0.14278 -0.551642,-0.0996 -0.384697,2.9457 0.240741,4.3914 0.361737,5.07677 0.862342,4.88467 0.343358,-0.13176 0.383842,-0.4868 0.24406,-2.14041 z m -3.761336,-0.32532 c 0.1771,-0.63519 0.171194,-0.6382 -0.239648,-0.12208 -0.231672,0.29104 -0.654556,0.79797 -0.939741,1.12649 -0.804818,0.92714 -0.610642,1.2553 0.239648,0.40501 0.416992,-0.41699 0.839875,-1.05123 0.939741,-1.40942 z m 1.925029,0.87515 c -0.06708,-0.25743 -0.126382,-0.11087 -0.131774,0.32569 -0.0054,0.43656 0.04949,0.64719 0.12197,0.46806 0.07248,-0.17914 0.07689,-0.53632 0.0098,-0.79375 z m -1.087478,-0.47971 c 0.215485,-0.51573 0.329263,-1.03886 0.252839,-1.16251 -0.07642,-0.12366 0.03413,-0.63908 0.245676,-1.14538 0.365775,-0.87542 0.316446,-1.25234 -0.163901,-1.25234 -0.119202,0 -0.531899,0.47625 -0.917104,1.05834 -0.777363,1.17467 -1.315933,1.42718 -0.846494,0.39687 0.165759,-0.3638 0.398274,-0.66146 0.5167,-0.66146 0.311094,0 0.920103,-1.30389 1.112206,-2.38125 l 0.165123,-0.92604 -0.500475,0.59532 c -0.275262,0.32742 -0.589141,0.59531 -0.69751,0.59531 -0.108368,0 0.01913,-0.23886 0.283324,-0.53079 0.264196,-0.29193 0.400482,-0.61066 0.302856,-0.70829 -0.09762,-0.0976 -0.364583,0.0519 -0.593241,0.33235 -0.340772,0.41791 -0.390424,0.4288 -0.275351,0.0604 0.14131,-0.45243 0.02975,-0.51653 -1.485587,-0.85373 -0.713684,-0.1588 -0.723774,-0.14357 -0.553362,0.83531 0.09547,0.54838 0.180212,1.20542 0.188322,1.46008 0.0081,0.25466 0.102379,0.46302 0.209486,0.46302 0.107107,0 0.316098,-0.20836 0.464424,-0.46302 0.236496,-0.40604 0.270675,-0.41003 0.277731,-0.0324 0.0044,0.23685 -0.16151,0.57135 -0.368745,0.74334 -0.235351,0.19532 -0.363958,0.76 -0.342604,1.50427 0.02891,1.00757 0.107517,1.17239 0.509083,1.06737 0.579005,-0.15141 0.601751,0.002 0.07802,0.52553 -0.218281,0.21828 -0.396875,0.5946 -0.396875,0.83627 0,0.26582 0.264118,0.0507 0.668582,-0.54451 0.500775,-0.73696 0.832813,-0.97032 1.322917,-0.92975 0.695891,0.0576 0.798552,0.20771 0.419488,0.61342 -0.308636,0.33034 -0.640857,1.44198 -0.430941,1.44198 0.08999,0 0.339928,-0.42196 0.555413,-0.93769 z m -2.278762,-1.95799 c 0.303053,-0.56626 0.806497,-0.96336 0.793221,-0.62566 -0.0116,0.29511 -0.671192,1.14009 -0.889958,1.14009 -0.09822,0 -0.05469,-0.23149 0.09674,-0.51443 z m 1.595386,0.291 c 0,-0.12289 0.304682,-0.56937 0.677072,-0.99219 l 0.677071,-0.76875 -0.461492,0.99218 c -0.422608,0.90859 -0.892651,1.3134 -0.892651,0.76876 z m -1.171771,-1.94711 c 0.415443,-0.53895 0.813174,-0.92208 0.883847,-0.85141 0.07067,0.0707 -0.269235,0.51163 -0.755351,0.97991 l -0.883847,0.85142 z m 0.65729,0.45075 c -0.0016,-0.14552 0.229911,-0.56224 0.514481,-0.92604 0.28457,-0.3638 0.520048,-0.52582 0.523284,-0.36004 0.0032,0.16578 -0.228281,0.5825 -0.514481,0.92604 -0.286201,0.34354 -0.521678,0.50556 -0.523284,0.36004 z m 6.624438,1.78594 c 0.0489,-1.97951 -0.0705,-3.37872 -0.30956,-3.62479 -0.14966,-0.15409 -0.24415,0.69065 -0.24415,2.18281 0,1.44639 0.10737,2.43416 0.26459,2.43416 0.14552,0 0.27562,-0.44648 0.28912,-0.99218 z m 16.3266,-1.99264 c -0.0373,-1.35385 -0.0877,-1.48576 -0.43488,-1.13858 -0.30018,0.30018 -0.32118,0.47883 -0.0892,0.7584 0.2313,0.27869 0.21215,0.48646 -0.0805,0.87317 -0.46934,0.62028 -0.48585,0.92184 -0.1029,1.8793 l 0.29791,0.74483 0.22585,-0.79294 c 0.12421,-0.43611 0.20685,-1.48199 0.18364,-2.32418 z m -1.36866,1.344 c -0.35609,-1.39928 -0.85335,-2.09928 -0.61995,-0.87272 0.19002,0.99853 0.70061,2.3557 0.83502,2.21951 0.0558,-0.0566 -0.041,-0.66262 -0.21507,-1.34679 z m -19.56424,0.53288 c -0.08446,-0.21106 -0.147156,-0.14837 -0.159852,0.15985 -0.01149,0.27892 0.05105,0.43519 0.138964,0.34727 0.08792,-0.0879 0.09732,-0.31612 0.02089,-0.50712 z m -0.264583,-3.43958 c -0.08446,-0.21107 -0.147157,-0.14837 -0.159852,0.15985 -0.01149,0.27892 0.05105,0.43519 0.138964,0.34727 0.08792,-0.0879 0.09732,-0.31612 0.02089,-0.50712 z m -3.627986,-2.05672 c 0.450232,-0.28474 0.367709,-0.40376 -0.455359,-0.65676 -0.421118,-0.12944 -0.595312,-0.0745 -0.595312,0.18762 0,0.69532 0.406222,0.8767 1.050671,0.46914 z"
       id="path1" /></g></svg>
